<svg width="32" height="32" viewBox="0 0 32 32" fill="none" xmlns="http://www.w3.org/2000/svg">
<path fill-rule="evenodd" clip-rule="evenodd" d="M25.3333 15.9999H18.6667V26.6666H25.3333C26.0697 26.6666 26.6667 26.0696 26.6667 25.3333V17.3333C26.6667 16.5969 26.0697 15.9999 25.3333 15.9999ZM16 13.3333V29.3333H25.3333C27.5425 29.3333 29.3333 27.5424 29.3333 25.3333V17.3333C29.3333 15.1241 27.5425 13.3333 25.3333 13.3333H16Z" fill="#23262F"/>
<path d="M23.9999 20.0001C23.9999 19.2637 23.403 18.6667 22.6666 18.6667C21.9302 18.6667 21.3333 19.2637 21.3333 20.0001C21.3333 20.7365 21.9302 21.3334 22.6666 21.3334C23.403 21.3334 23.9999 20.7365 23.9999 20.0001Z" fill="#23262F"/>
<path d="M23.9999 24.0001C23.9999 23.2637 23.403 22.6667 22.6666 22.6667C21.9302 22.6667 21.3333 23.2637 21.3333 24.0001C21.3333 24.7365 21.9302 25.3334 22.6666 25.3334C23.403 25.3334 23.9999 24.7365 23.9999 24.0001Z" fill="#23262F"/>
<path fill-rule="evenodd" clip-rule="evenodd" d="M6.66675 29.3334C4.45761 29.3334 2.66675 27.5426 2.66675 25.3334V6.66675C2.66675 4.45761 4.45761 2.66675 6.66675 2.66675H14.6667C16.8759 2.66675 18.6667 4.45761 18.6667 6.66675V29.3334H6.66675ZM6.66675 5.33341H14.6667C15.4031 5.33341 16.0001 5.93037 16.0001 6.66675V26.6667H13.3334V25.3334C13.3334 24.597 12.7365 24.0001 12.0001 24.0001H9.33342C8.59704 24.0001 8.00008 24.597 8.00008 25.3334V26.6667H6.66675C5.93037 26.6667 5.33341 26.0698 5.33341 25.3334V6.66675C5.33341 5.93037 5.93037 5.33341 6.66675 5.33341Z" fill="#23262F"/>
<path d="M12 8C12.7364 8 13.3333 8.59695 13.3333 9.33333C13.3333 10.0697 12.7364 10.6667 12 10.6667H9.33333C8.59695 10.6667 8 10.0697 8 9.33333C8 8.59695 8.59695 8 9.33333 8H12Z" fill="#23262F"/>
<path d="M12 13.3333C12.7364 13.3333 13.3333 13.9303 13.3333 14.6667C13.3333 15.403 12.7364 16 12 16H9.33333C8.59695 16 8 15.403 8 14.6667C8 13.9303 8.59695 13.3333 9.33333 13.3333H12Z" fill="#23262F"/>
<path d="M13.3333 20C13.3333 19.2636 12.7364 18.6667 12 18.6667H9.33333C8.59695 18.6667 8 19.2636 8 20C8 20.7364 8.59695 21.3333 9.33333 21.3333H12C12.7364 21.3333 13.3333 20.7364 13.3333 20Z" fill="#23262F"/>
</svg>
