<svg width="16" height="16" viewBox="0 0 16 16" fill="none" xmlns="http://www.w3.org/2000/svg">
<path d="M7.99992 1.33325C7.63173 1.33325 7.33325 1.63173 7.33325 1.99992V3.99992C7.33325 4.36811 7.63173 4.66659 7.99992 4.66659C8.36811 4.66659 8.66659 4.36811 8.66659 3.99992V1.99992C8.66659 1.63173 8.36811 1.33325 7.99992 1.33325Z" fill="#23262F"/>
<path d="M7.99992 11.3333C7.63173 11.3333 7.33325 11.6317 7.33325 11.9999V13.9999C7.33325 14.3681 7.63173 14.6666 7.99992 14.6666C8.36811 14.6666 8.66659 14.3681 8.66659 13.9999V11.9999C8.66659 11.6317 8.36811 11.3333 7.99992 11.3333Z" fill="#23262F"/>
<path d="M13.9999 7.33325C14.3681 7.33325 14.6666 7.63173 14.6666 7.99992C14.6666 8.36811 14.3681 8.66659 13.9999 8.66659H11.9999C11.6317 8.66659 11.3333 8.36811 11.3333 7.99992C11.3333 7.63173 11.6317 7.33325 11.9999 7.33325H13.9999Z" fill="#23262F"/>
<path d="M4.66659 7.99992C4.66659 7.63173 4.36811 7.33325 3.99992 7.33325H1.99992C1.63173 7.33325 1.33325 7.63173 1.33325 7.99992C1.33325 8.36811 1.63173 8.66659 1.99992 8.66659H3.99992C4.36811 8.66659 4.66659 8.36811 4.66659 7.99992Z" fill="#23262F"/>
<path d="M11.7712 3.28594C12.0315 3.02559 12.4536 3.02559 12.714 3.28594C12.9743 3.54629 12.9743 3.9684 12.714 4.22875L11.2998 5.64296C11.0394 5.90331 10.6173 5.90331 10.357 5.64296C10.0966 5.38261 10.0966 4.9605 10.357 4.70015L11.7712 3.28594Z" fill="#23262F"/>
<path d="M5.64287 10.3569C5.38252 10.0966 4.96041 10.0966 4.70006 10.3569L3.28585 11.7711C3.0255 12.0315 3.0255 12.4536 3.28585 12.7139C3.5462 12.9743 3.96831 12.9743 4.22866 12.7139L5.64287 11.2997C5.90322 11.0394 5.90322 10.6173 5.64287 10.3569Z" fill="#23262F"/>
<path d="M12.714 11.7712C12.9743 12.0315 12.9743 12.4536 12.714 12.714C12.4536 12.9743 12.0315 12.9743 11.7712 12.714L10.357 11.2998C10.0966 11.0394 10.0966 10.6173 10.357 10.357C10.6173 10.0966 11.0394 10.0966 11.2998 10.357L12.714 11.7712Z" fill="#23262F"/>
<path d="M5.64293 5.64287C5.90328 5.38252 5.90328 4.96041 5.64293 4.70006L4.22872 3.28585C3.96837 3.0255 3.54626 3.0255 3.28591 3.28585C3.02556 3.5462 3.02556 3.96831 3.28591 4.22866L4.70013 5.64287C4.96047 5.90322 5.38259 5.90322 5.64293 5.64287Z" fill="#23262F"/>
</svg>
