<svg width="192" height="190" viewBox="0 0 192 190" fill="none" xmlns="http://www.w3.org/2000/svg">
<path d="M98.6195 2.97536e-06C117.222 -0.00424591 135.765 4.54195 151.235 14.8741C166.685 25.1935 178.229 40.465 185.068 57.7401C191.755 74.6334 192.602 93.1143 189.277 110.976C186.011 128.524 178.449 145.03 166.373 158.174C154.4 171.207 138.606 179.765 121.595 184.648C104.468 189.564 86.3503 191.03 69.2408 186.054C51.9481 181.024 40.4168 168.003 28.5 154.5C16.3722 140.758 3.56378 126.712 0.869338 108.583C-1.85591 90.2463 1.98919 71.5459 10.1212 54.8871C18.1998 38.3377 30.9511 24.6044 46.6014 14.898C62.2461 5.19507 80.2102 0.00420778 98.6195 2.97536e-06Z" fill="#F4F5F6"/>
</svg>
