<svg width="184" height="187" viewBox="0 0 184 187" fill="none" xmlns="http://www.w3.org/2000/svg">
<path d="M122.974 1.58256C140.276 5.78872 156.818 15.1236 167.175 29.6079C177.328 43.8065 176.632 62.2635 178.753 79.5892C180.926 97.3323 187.231 115.896 179.728 132.121C172.15 148.51 154.339 156.699 138.824 165.936C123.174 175.252 107.4 186.676 89.1989 186.013C70.9567 185.349 55.9204 172.938 41.0336 162.373C26.1838 151.835 9.34 141.834 2.92794 124.791C-3.43664 107.875 1.81116 89.1443 6.96444 71.8203C11.7117 55.8614 19.4178 41.0193 31.3128 29.3688C42.9097 18.0101 57.8148 11.5083 73.3496 6.7991C89.5961 1.87416 106.478 -2.42759 122.974 1.58256Z" fill="#F4F5F6"/>
</svg>
