<svg width="179" height="185" viewBox="0 0 179 185" fill="none" xmlns="http://www.w3.org/2000/svg">
<path d="M138.709 14.4589C153.296 23.648 165.496 36.4628 172.511 52.2114C179.401 67.678 179.23 84.868 177.58 101.719C175.898 118.906 172.912 136.233 162.91 150.31C152.477 164.993 137.743 176.754 120.519 182.023C103.388 187.264 85.2305 184.02 67.93 179.368C50.6175 174.713 32.5759 169.025 21.0643 155.282C9.71638 141.734 9.26012 122.929 6.09205 105.543C2.8725 87.8739 -3.47383 69.8539 2.40558 52.884C8.44967 35.4388 22.6125 21.8421 38.4046 12.2778C53.7447 2.98721 71.7449 -0.359676 89.6748 0.0302024C107.061 0.408248 123.995 5.19015 138.709 14.4589Z" fill="#F4F5F6"/>
</svg>
